<svg x="0" y="0" width="700" height="350" viewBox="0 0 700 350" xmlns="http://www.w3.org/2000/svg" xmlns:xlink="http://www.w3.org/1999/xlink" xmlns:fi="http://pattern.flaticon.com/"><rect x="0px" y="0px" width="100%" height="100%" opacity="1" fill="#002925"/><defs><g transform="matrix(0.1171875 0 0 0.1171875 108 48)" id="L1_6"><path d="M449.651,285.264l-47.944-79.184c4.248-52.544,7.432-95.16,7.432-95.16S424.643,0,303.891,0C164.507,0,60.099,0,60.099,0  v512h130.848l59.736-59.736c0,0,59.736,0,93.872,0s34.136-8.536,42.672-85.336c1.576-14.168,3.312-31.832,5.104-51.2h38.496  C446.475,315.728,456.651,299.256,449.651,285.264z"/><rect x="119px" y="225px" width="216px" height="8px" fill="#e21b1b"/><g><path d="M335.323,260.168h-8v-8h8V260.168z M319.323,260.168h-8v-8h8V260.168z M303.323,260.168h-8v-8h8   V260.168z M287.323,260.168h-8v-8h8V260.168z M271.323,260.168h-8v-8h8V260.168z M255.323,260.168h-8v-8h8V260.168z    M239.323,260.168h-8v-8h8V260.168z M223.323,260.168h-8v-8h8V260.168z M207.323,260.168h-8v-8h8V260.168z M191.323,260.168h-8v-8   h8V260.168z M175.323,260.168h-8v-8h8V260.168z M159.323,260.168h-8v-8h8V260.168z M143.323,260.168h-8v-8h8V260.168z    M127.323,260.168h-8v-8h8V260.168z" fill="#ffffff"/><path d="M119.243,175v-62.224h9.488v9.432c2.424-4.408,4.664-7.32,6.712-8.728   c2.056-1.408,4.304-2.112,6.776-2.112c3.544,0,7.168,1.136,10.832,3.4l-3.632,9.784c-2.576-1.512-5.16-2.28-7.736-2.28   c-2.304,0-4.376,0.696-6.208,2.08c-1.832,1.392-3.152,3.312-3.928,5.776c-1.168,3.752-1.752,7.848-1.752,12.304v32.576h-10.552V175   z" fill="#ffffff"/><path d="M200.099,175v-9.144c-4.84,7.032-11.424,10.544-19.744,10.544c-3.672,0-7.104-0.704-10.28-2.112   c-3.184-1.408-5.544-3.168-7.096-5.304c-1.536-2.128-2.624-4.736-3.248-7.824c-0.432-2.072-0.648-5.352-0.648-9.84v-38.552h10.544   v34.504c0,5.512,0.216,9.224,0.648,11.144c0.664,2.776,2.072,4.944,4.216,6.528c2.152,1.576,4.808,2.376,7.968,2.376   s6.136-0.816,8.904-2.44c2.776-1.616,4.736-3.832,5.888-6.616c1.152-2.8,1.728-6.84,1.728-12.168V112.76h10.544v62.224h-9.424V175z   " fill="#ffffff"/><path d="M235.795,175h-9.792V89.104h10.544v30.648c4.456-5.584,10.136-8.384,17.056-8.384   c3.824,0,7.448,0.776,10.864,2.312c3.416,1.544,6.224,3.712,8.44,6.504c2.2,2.792,3.928,6.168,5.176,10.112   s1.872,8.168,1.872,12.656c0,10.656-2.632,18.904-7.904,24.72c-5.272,5.832-11.6,8.736-18.984,8.736   c-7.344,0-13.112-3.064-17.28-9.2V175H235.795z M235.667,143.424c0,7.464,1.016,12.848,3.048,16.168   c3.32,5.432,7.816,8.144,13.488,8.144c4.6,0,8.584-2,11.952-6.008c3.352-4,5.032-9.968,5.032-17.896   c0-8.128-1.608-14.128-4.832-17.984c-3.224-3.872-7.128-5.808-11.688-5.808c-4.616,0-8.6,2-11.952,6.008   C237.347,130.048,235.667,135.848,235.667,143.424z" fill="#ffffff"/><path d="M292.323,198.976l-1.168-9.904c2.304,0.624,4.32,0.936,6.04,0.936c2.344,0,4.216-0.392,5.624-1.168   s2.552-1.872,3.464-3.28c0.656-1.056,1.736-3.672,3.216-7.848c0.192-0.584,0.504-1.448,0.936-2.576l-23.608-62.344h11.36   l12.952,36.04c1.68,4.56,3.176,9.376,4.512,14.408c1.2-4.832,2.648-9.56,4.328-14.168l13.304-36.272h10.544l-23.672,63.28   c-2.536,6.832-4.504,11.536-5.912,14.12c-1.872,3.48-4.032,6.032-6.456,7.648c-2.424,1.624-5.312,2.432-8.672,2.432   C297.091,200.256,294.827,199.824,292.323,198.976z" fill="#ffffff"/></g></g><g transform="matrix(0.8108108043670654 0 0 0.8108108043670654 232.00001525878906 212)" id="L1_7"><path d="M37,69a1,1,0,0,1-.8-.4l-34-45a1,1,0,0,1-.1-1.05A1,1,0,0,1,3,22H71a1,1,0,0,1,.9.55,1,1,0,0,1-.1,1.05l-34,45A1,1,0,0,1,37,69ZM5,24,37,66.34,69,24Z"/><path d="M37,69a1,1,0,0,1-.94-.65l-17-45a1,1,0,0,1,.12-.92A1,1,0,0,1,20,22H54a1,1,0,0,1,.82.43,1,1,0,0,1,.12.92l-17,45A1,1,0,0,1,37,69ZM21.45,24,37,65.17,52.55,24Z"/><path d="M71,24H3a1,1,0,0,1-.86-1.51l10-17A1,1,0,0,1,13,5H61a1,1,0,0,1,.86.49l10,17A1,1,0,0,1,71,24ZM4.75,22h64.5L60.43,7H13.57Z"/><path d="M54,24H20a1,1,0,0,1-.84-.46,1,1,0,0,1-.06-1l8-17A1,1,0,0,1,28,5H46a1,1,0,0,1,.9.57l8,17a1,1,0,0,1-.06,1A1,1,0,0,1,54,24ZM21.58,22H52.42L45.37,7H28.63Z"/></g><g transform="matrix(0.1171875 0 0 0.1171875 295 69)" id="L1_8"><circle cx="256" cy="256" r="256"/><g><path d="M99.24,302.24V199.16h45.704c9.184,0,16.168,0.928,20.952,2.784s8.6,5.12,11.464,9.808   s4.288,9.864,4.288,15.536c0,7.312-2.368,13.48-7.104,18.496s-12.048,8.2-21.936,9.56c3.608,1.736,6.352,3.448,8.224,5.136   c3.984,3.656,7.76,8.224,11.32,13.712l17.928,28.056h-17.16L159.288,280.8c-3.984-6.184-7.264-10.92-9.84-14.2   s-4.88-5.576-6.928-6.888c-2.032-1.312-4.112-2.224-6.216-2.744c-1.544-0.328-4.08-0.496-7.592-0.496H112.88v45.776H99.24V302.24z    M112.88,244.656h29.32c6.232,0,11.112-0.64,14.624-1.928s6.184-3.352,8.016-6.184s2.744-5.92,2.744-9.248   c0-4.872-1.776-8.88-5.304-12.024c-3.544-3.144-9.136-4.712-16.776-4.712H112.88V244.656z" fill="#ffffff"/><path d="M250.336,302.24v-10.968c-5.816,8.44-13.712,12.656-23.696,12.656c-4.408,0-8.52-0.84-12.344-2.528   s-6.656-3.808-8.496-6.36c-1.856-2.552-3.16-5.688-3.904-9.392c-0.512-2.488-0.776-6.424-0.776-11.816v-46.264h12.656v41.416   c0,6.608,0.256,11.064,0.776,13.36c0.8,3.328,2.488,5.944,5.064,7.832c2.576,1.904,5.768,2.848,9.56,2.848s7.36-0.968,10.688-2.912   s5.68-4.592,7.064-7.952c1.384-3.344,2.08-8.208,2.08-14.584v-40.008h12.656v74.672H250.336z" fill="#ffffff"/><path d="M293.16,302.24h-11.744V199.16h12.656v36.776c5.344-6.704,12.168-10.056,20.464-10.056   c4.592,0,8.936,0.928,13.04,2.784s7.48,4.456,10.128,7.8c2.648,3.36,4.728,7.4,6.224,12.136s2.248,9.8,2.248,15.184   c0,12.8-3.168,22.688-9.496,29.672s-13.92,10.48-22.784,10.48c-8.816,0-15.728-3.68-20.744-11.04v9.344H293.16z M293.016,264.344   c0,8.952,1.216,15.424,3.656,19.408c3.984,6.512,9.376,9.776,16.168,9.776c5.528,0,10.312-2.4,14.344-7.2   s6.048-11.968,6.048-21.488c0-9.752-1.928-16.944-5.808-21.584c-3.856-4.64-8.536-6.96-14.024-6.96   c-5.528,0-10.312,2.408-14.344,7.2C295.032,248.304,293.016,255.248,293.016,264.344z" fill="#ffffff"/><path d="M361.008,331l-1.408-11.88c2.768,0.752,5.176,1.128,7.24,1.128c2.816,0,5.064-0.472,6.752-1.408   s3.072-2.248,4.152-3.936c0.8-1.264,2.088-4.408,3.864-9.424c0.232-0.704,0.608-1.736,1.128-3.096L354.4,227.568h13.64   l15.536,43.24c2.016,5.488,3.824,11.248,5.416,17.296c1.456-5.816,3.184-11.488,5.2-17.016l15.96-43.52h12.656L394.4,303.504   c-3.048,8.2-5.416,13.848-7.104,16.944c-2.248,4.168-4.832,7.224-7.736,9.176c-2.904,1.936-6.376,2.912-10.408,2.912   C366.728,332.544,364.008,332.032,361.008,331z" fill="#ffffff"/></g></g><path d="M590.045,126.94l-81.6-122.4c-2.04-2.856-5.1-4.488-8.568-4.488h-408c-3.468,0-6.528,1.632-8.568,4.488l-81.6,122.4    c-2.244,3.264-2.244,7.752-0.204,11.22l285.6,448.8c1.836,2.856,5.1,4.692,8.568,4.692s6.732-1.836,8.568-4.692l285.6-448.8    C592.289,134.692,592.289,130.408,590.045,126.94z M300.977,137.752h147.9l-147.9,414.324V137.752z M300.977,127.552v-107.1    h189.924l-38.352,107.1H300.977z M290.777,127.552H139.205l-38.352-107.1h189.924V127.552z M290.777,137.752v414.324    l-147.9-414.324H290.777z M268.133,518.824L25.577,137.752h106.284L268.133,518.824z M459.689,137.752h106.284L323.621,518.824    L459.689,137.752z M565.769,127.552H463.361l35.7-99.96L565.769,127.552z M92.693,27.592l35.7,99.96H25.985L92.693,27.592z" transform="matrix(0.10140205174684525 0 0 0.10140205174684525 128 250)" id="L1_9"/><g transform="matrix(0.1171875 0 0 0.1171875 279 305)" id="L1_10"><path d="M512,256c0,141.385-114.615,256-256,256c-86.298,0-162.628-42.705-209-108.136c0,0,0,0-0.01,0  c-11.786-16.635-21.64-34.732-29.226-53.979c-3.835-9.728-7.095-19.738-9.728-30.009c0,0,0,0,0-0.01C2.79,299.447,0,278.047,0,256  C0,114.615,114.615,0,256,0c79.182,0,149.964,35.944,196.911,92.411c16.959,20.376,30.804,43.426,40.814,68.42  C505.511,190.255,512,222.375,512,256z" fill="#f2f2f2"/><path d="M493.725,160.831c-0.021,0.199-0.042,0.408-0.063,0.616c-1.411,12.654-5.402,26.269-11.776,40.396  l-0.01,0.01L371.66,482.304L76.455,413.069c-3.626-0.711-7.147-1.536-10.553-2.476c-6.781-1.839-13.093-4.086-18.902-6.729  c0,0,0,0-0.01,0c-17.742-25.046-31.107-53.415-38.954-83.989c0.878-3.668,2.288-9.331,4.148-16.29  c7.168-26.843,21.096-72.85,37.836-97.04l1.63,55.965l110.299,7.356l149.514-71.084l64.543-94.772l-28.588-45.756  c47.689,11.567,77.908,22.016,96.935,30.26c3.156,1.358,5.998,2.664,8.558,3.897c19.111,9.226,22.779,14.838,22.779,14.838  c6.301,5.308,11.024,11.536,13.897,18.662C493.767,136.255,495.073,148.052,493.725,160.831z" fill="#9b0a0e"/><ellipse cx="207px" cy="159px" rx="74px" ry="167px" transform="matrix(-0.4526999890804291 -0.891700029373169 0.891700029373169 -0.4526999890804291 159.2263946533203 416.7550048828125)" fill="#ef0e13"/><g><path d="M301.18,369.117l70.476,113.191l-185.652-72.87C222.656,401.872,262.012,388.497,301.18,369.117z" fill="#f5655e"/><path d="M50.019,206.546l1.634,55.966l-39.47,41.072C19.356,276.744,33.278,230.737,50.019,206.546z" fill="#f5655e"/></g><g><path d="M51.649,262.51l-33.886,87.374c-3.835-9.728-7.095-19.738-9.728-30.009c0,0,0,0,0-0.01   c0.888-3.668,2.288-9.331,4.148-16.279L51.649,262.51z" fill="#950c10"/><path d="M376.012,104.009l117.651,57.437c-1.414,12.656-5.4,26.268-11.781,40.402l-0.008,0.008   c-4.771,10.589-10.891,21.472-18.261,32.452L376.012,104.009z" fill="#950c10"/></g><g><path d="M481.873,201.857L371.657,482.307l28.228-177.874c26.422-22.607,47.951-46.595,63.728-70.125   C470.983,223.327,477.101,212.444,481.873,201.857z" fill="#ef0e13"/><path d="M376.012,104.009 463.613,234.308 311.466,198.785z" fill="#ef0e13"/></g><path d="M444.355,88.51l-68.344,15.499l-28.596-45.761C395.105,69.825,425.327,80.267,444.355,88.51z" fill="#f5655e"/><path d="M311.466,198.785l88.418,105.65c-26.594,22.762-58.139,44.127-93.786,62.225  c-1.643,0.834-3.276,1.65-4.918,2.46L311.466,198.785z" fill="#950c10"/><path d="M311.466,198.785 301.18,369.117 161.951,269.865z" fill="#ef0e13"/><path d="M161.951,269.865l139.228,99.252c-39.168,19.38-78.524,32.754-115.176,40.321L161.951,269.865z" fill="#950c10"/><path d="M161.951,269.865 65.902,410.598 51.653,262.512z" fill="#f5655e"/></g><g transform="matrix(0.1171875 0 0 0.1171875 10 193)" id="L1_11"><path d="M256,0 56,256 256,512 456,256z"/><path d="M256,512 56,256 256,0z" fill="#333333"/></g></defs><g fi:class="KUsePattern"><pattern id="pattern_L1_6" width="350" height="350" patternUnits="userSpaceOnUse"><use xlink:href="#L1_6" x="-350" y="-350"/><use xlink:href="#L1_6" x="0" y="-350"/><use xlink:href="#L1_6" x="350" y="-350"/><use xlink:href="#L1_6" x="-350" y="0"/><use xlink:href="#L1_6" x="0" y="0"/><use xlink:href="#L1_6" x="350" y="0"/><use xlink:href="#L1_6" x="-350" y="350"/><use xlink:href="#L1_6" x="0" y="350"/><use xlink:href="#L1_6" x="350" y="350"/></pattern><rect x="0" y="0" width="100%" height="100%" fill="url(#pattern_L1_6)"/></g><g fi:class="KUsePattern"><pattern id="pattern_L1_7" width="350" height="350" patternUnits="userSpaceOnUse"><use xlink:href="#L1_7" x="-350" y="-350"/><use xlink:href="#L1_7" x="0" y="-350"/><use xlink:href="#L1_7" x="350" y="-350"/><use xlink:href="#L1_7" x="-350" y="0"/><use xlink:href="#L1_7" x="0" y="0"/><use xlink:href="#L1_7" x="350" y="0"/><use xlink:href="#L1_7" x="-350" y="350"/><use xlink:href="#L1_7" x="0" y="350"/><use xlink:href="#L1_7" x="350" y="350"/></pattern><rect x="0" y="0" width="100%" height="100%" fill="url(#pattern_L1_7)"/></g><g fi:class="KUsePattern"><pattern id="pattern_L1_8" width="350" height="350" patternUnits="userSpaceOnUse"><use xlink:href="#L1_8" x="-350" y="-350"/><use xlink:href="#L1_8" x="0" y="-350"/><use xlink:href="#L1_8" x="350" y="-350"/><use xlink:href="#L1_8" x="-350" y="0"/><use xlink:href="#L1_8" x="0" y="0"/><use xlink:href="#L1_8" x="350" y="0"/><use xlink:href="#L1_8" x="-350" y="350"/><use xlink:href="#L1_8" x="0" y="350"/><use xlink:href="#L1_8" x="350" y="350"/></pattern><rect x="0" y="0" width="100%" height="100%" fill="url(#pattern_L1_8)"/></g><g fi:class="KUsePattern"><pattern id="pattern_L1_9" width="350" height="350" patternUnits="userSpaceOnUse"><use xlink:href="#L1_9" x="-350" y="-350"/><use xlink:href="#L1_9" x="0" y="-350"/><use xlink:href="#L1_9" x="350" y="-350"/><use xlink:href="#L1_9" x="-350" y="0"/><use xlink:href="#L1_9" x="0" y="0"/><use xlink:href="#L1_9" x="350" y="0"/><use xlink:href="#L1_9" x="-350" y="350"/><use xlink:href="#L1_9" x="0" y="350"/><use xlink:href="#L1_9" x="350" y="350"/></pattern><rect x="0" y="0" width="100%" height="100%" fill="url(#pattern_L1_9)"/></g><g fi:class="KUsePattern"><pattern id="pattern_L1_10" width="350" height="350" patternUnits="userSpaceOnUse"><use xlink:href="#L1_10" x="-350" y="-350"/><use xlink:href="#L1_10" x="0" y="-350"/><use xlink:href="#L1_10" x="350" y="-350"/><use xlink:href="#L1_10" x="-350" y="0"/><use xlink:href="#L1_10" x="0" y="0"/><use xlink:href="#L1_10" x="350" y="0"/><use xlink:href="#L1_10" x="-350" y="350"/><use xlink:href="#L1_10" x="0" y="350"/><use xlink:href="#L1_10" x="350" y="350"/></pattern><rect x="0" y="0" width="100%" height="100%" fill="url(#pattern_L1_10)"/></g><g fi:class="KUsePattern"><pattern id="pattern_L1_11" width="350" height="350" patternUnits="userSpaceOnUse"><use xlink:href="#L1_11" x="-350" y="-350"/><use xlink:href="#L1_11" x="0" y="-350"/><use xlink:href="#L1_11" x="350" y="-350"/><use xlink:href="#L1_11" x="-350" y="0"/><use xlink:href="#L1_11" x="0" y="0"/><use xlink:href="#L1_11" x="350" y="0"/><use xlink:href="#L1_11" x="-350" y="350"/><use xlink:href="#L1_11" x="0" y="350"/><use xlink:href="#L1_11" x="350" y="350"/></pattern><rect x="0" y="0" width="100%" height="100%" fill="url(#pattern_L1_11)"/></g></svg>